<?xml version="1.0" encoding="UTF-8"?>
<svg version="1.1" xmlns="http://www.w3.org/2000/svg" width="48" height="52">
<path d="M0 0 C15.84 0 31.68 0 48 0 C48 17.16 48 34.32 48 52 C32.16 52 16.32 52 0 52 C0 34.84 0 17.68 0 0 Z " fill="#1653F0" transform="translate(0,0)"/>
<path d="M0 0 C5.33739473 1.98844117 8.45333824 4.90667648 11 10 C11.40331428 15.24308569 10.86051133 18.56127553 8 23 C4.32297423 26.40124883 1.71377437 27.83832317 -3.3125 28.3125 C-8.49723861 27.87311537 -11.41601755 25.80246279 -14.8125 21.9375 C-17.23959201 17.97750777 -17.38595477 14.55426632 -17 10 C-13.30090764 2.74408806 -8.25966171 -1.03245771 0 0 Z " fill="#1A56F1" transform="translate(27,14)"/>
<path d="M0 0 C15.84 0 31.68 0 48 0 C48 3.96 48 7.92 48 12 C47.236875 11.21625 46.47375 10.4325 45.6875 9.625 C39.78636759 3.86110323 34.19958151 4.59408598 26.43139648 4.57446289 C24.20508871 4.56259377 21.98157985 4.51343596 19.75585938 4.46289062 C18.33074263 4.45342224 16.90560893 4.44618919 15.48046875 4.44140625 C13.54530396 4.42122437 13.54530396 4.42122437 11.57104492 4.40063477 C6.16279902 5.30835636 3.82453012 8.17546988 0 12 C0 8.04 0 4.08 0 0 Z " fill="#FBFCFE" transform="translate(0,0)"/>
<path d="M0 0 C5.33739473 1.98844117 8.45333824 4.90667648 11 10 C11.40331428 15.24308569 10.86051133 18.56127553 8 23 C4.32297423 26.40124883 1.71377437 27.83832317 -3.3125 28.3125 C-8.49723861 27.87311537 -11.41601755 25.80246279 -14.8125 21.9375 C-17.23959201 17.97750777 -17.38595477 14.55426632 -17 10 C-13.30090764 2.74408806 -8.25966171 -1.03245771 0 0 Z M-13 8 C-14.61429923 11.22859847 -14.59570657 14.50993653 -14 18 C-12.26397895 21.02508145 -10.16419863 23.41790069 -7 25 C-1.87629602 25.60728845 -1.87629602 25.60728845 2.82421875 23.953125 C6.62752744 20.82207185 7.88663367 19.13366332 8.375 14.25 C8.35058775 10.89941932 7.75601354 9.15105468 5.625 6.5625 C2.0951414 3.11668565 0.0716348 2.60444164 -4.89453125 2.640625 C-8.61593453 3.27581814 -10.40312849 5.33979016 -13 8 Z " fill="#D7E2FC" transform="translate(27,14)"/>
<path d="M0 0 C3.68330929 2.45553953 3.43971202 3.90906821 4.3515625 8.02734375 C5.39683712 11.20724547 7.1527031 12.38221767 10 14 C13.18762109 14.79690838 13.18762109 14.79690838 16 15 C16.33 15.99 16.66 16.98 17 18 C11.2799241 18.45760607 8.44703273 17.63848132 4 14 C0.07650849 9.53533724 -0.11005416 5.83287025 0 0 Z " fill="#D5E0FC" transform="translate(10,24)"/>
<path d="M0 0 C-0.53625 0.2475 -1.0725 0.495 -1.625 0.75 C-6.75432009 3.44964215 -10.36495903 5.72991807 -13 11 C-13.391875 11.763125 -13.78375 12.52625 -14.1875 13.3125 C-14.5896875 14.1478125 -14.5896875 14.1478125 -15 15 C-15.66964286 7.23214286 -15.66964286 7.23214286 -12.625 3.5625 C-8.32182266 -0.63822074 -5.79413828 -0.09345384 0 0 Z " fill="#E8EFFD" transform="translate(26,15)"/>
<path d="M0 0 C0.66 0 1.32 0 2 0 C2 2.97 2 5.94 2 9 C3.65 9.33 5.3 9.66 7 10 C7 10.99 7 11.98 7 13 C1.125 11.125 1.125 11.125 0 10 C-0.07205511 8.31391034 -0.08386068 6.62499341 -0.0625 4.9375 C-0.05347656 4.01839844 -0.04445313 3.09929688 -0.03515625 2.15234375 C-0.02355469 1.44207031 -0.01195313 0.73179688 0 0 Z " fill="#E5ECFD" transform="translate(23,19)"/>
<path d="M0 0 C0.33 0.99 0.66 1.98 1 3 C-4.04615385 7.92307692 -4.04615385 7.92307692 -8.875 8.3125 C-9.90625 8.209375 -10.9375 8.10625 -12 8 C-8 5.33333333 -4 2.66666667 0 0 Z " fill="#E5EBFD" transform="translate(35,33)"/>
<path d="M0 0 C0.33 0 0.66 0 1 0 C1 2.97 1 5.94 1 9 C-1.97 9 -4.94 9 -8 9 C-6.8553125 8.1646875 -6.8553125 8.1646875 -5.6875 7.3125 C-3.03568819 5.03070844 -1.68044905 3.02480829 0 0 Z " fill="#EAEEFC" transform="translate(47,43)"/>
<path d="M0 0 C2.66666667 2.66666667 5.33333333 5.33333333 8 8 C5.36 8 2.72 8 0 8 C0 5.36 0 2.72 0 0 Z " fill="#F0F4FE" transform="translate(0,44)"/>
<path d="M0 0 C1.98 0 3.96 0 6 0 C6.33 0.99 6.66 1.98 7 3 C4.69 3 2.38 3 0 3 C0 2.01 0 1.02 0 0 Z " fill="#CCD9FB" transform="translate(20,39)"/>
</svg>
